<mxfile host="app.diagrams.net" modified="2024-05-24T10:42:44.530Z" agent="Mozilla/5.0 (Windows NT 10.0; Win64; x64) AppleWebKit/537.36 (KHTML, like Gecko) Chrome/121.0.0.0 Safari/537.36" version="24.4.7" etag="Fu_MmSDK7wFBjYrUaT3g" type="github">
  <diagram name="PÃ¡gina-1" id="eTTwRvoR3sH9KRc6EjyN">
    <mxGraphModel>
      <root>
        <mxCell id="0" />
        <mxCell id="1" parent="0" />
      </root>
    </mxGraphModel>
  </diagram>
</mxfile>
